<svg xmlns="http://www.w3.org/2000/svg" width="1024" height="1024" viewBox="0 0 1024 1024">
  <path d="M-338.1 137.4 -339.0 139.8 -339.6 145.0 -339.0 150.2 -338.1 152.7 -335.5 157.2 -333.8 159.1 -329.6 162.3 -244.3 197.6 -172.8 228.2 -96.2 262.0 -20.0 296.7 58.5 333.6 142.1 373.8 241.6 423.0 327.1 466.1 348.0 477.6 366.1 488.0 383.9 499.0 401.0 510.1 420.2 523.7 436.5 536.1 452.2 549.1 467.5 563.0 472.5 566.3 477.9 569.0 483.6 570.9 489.5 572.1 495.5 572.5 501.5 572.1 507.4 570.9 513.1 569.0 518.5 566.3 523.5 563.0 528.0 559.0 532.0 554.5 535.3 549.5 538.0 544.1 539.9 538.4 541.1 532.5 541.5 526.5 541.1 520.5 539.9 514.6 538.0 508.9 535.3 503.5 532.0 498.5 528.0 494.0 523.5 490.0 518.5 486.7 513.1 484.0 507.4 482.1 501.5 480.9 487.4 479.0 472.5 476.1 444.0 468.8 427.2 463.5 410.9 457.8 391.4 450.3 372.1 442.2 334.2 424.7 221.4 368.4 130.5 323.8 63.0 291.5 -2.0 261.0 -75.4 227.5 -146.5 196.0 -218.0 165.3 -289.8 135.5 -312.0 126.5 -314.5 125.7 -319.6 125.0 -324.8 125.7 -327.3 126.5 -331.8 129.1 -335.5 132.8Z" fill="#1D5BFF"/>
</svg>
