<svg xmlns="http://www.w3.org/2000/svg" width="1024" height="1024" viewBox="0 0 1024 1024">
  <path d="M283.8 648.3 281.6 649.9 279.0 653.0 277.7 655.4 277.0 658.1 276.9 662.1 277.5 664.8 278.6 667.3 280.1 669.5 283.2 672.2 285.6 673.5 298.1 676.6 307.3 679.4 316.1 682.6 324.9 686.5 333.0 690.7 340.6 695.4 347.9 700.6 354.7 706.2 361.2 712.3 367.3 718.9 373.0 725.9 378.3 733.4 383.3 741.4 387.6 749.5 391.8 758.4 395.8 768.2 400.4 781.3 401.9 783.5 403.7 785.5 407.1 787.6 411.0 788.7 413.7 788.8 416.4 788.4 418.9 787.4 430.5 779.7 439.5 774.3 447.8 769.8 456.5 765.8 465.7 762.2 474.5 759.4 483.3 757.2 492.1 755.7 500.5 754.7 509.3 754.3 518.7 754.6 527.6 755.4 536.6 756.9 545.5 759.0 554.5 761.7 563.2 764.8 572.2 768.7 581.6 773.3 593.8 780.1 596.4 780.8 599.1 781.0 601.8 780.7 604.4 779.8 606.7 778.5 608.8 776.8 610.5 774.7 611.8 772.3 615.3 758.9 618.4 748.8 621.8 739.6 625.5 731.2 629.7 722.8 634.4 714.9 639.5 707.4 645.0 700.3 651.3 693.4 657.7 687.2 664.1 681.8 671.3 676.4 679.0 671.6 687.0 667.1 695.9 662.9 704.8 659.4 713.8 656.4 723.9 653.6 737.5 650.5 739.9 649.4 742.1 647.7 743.9 645.7 745.2 643.4 746.1 640.8 746.5 638.2 746.4 635.5 745.8 632.9 739.5 620.5 735.1 610.9 731.5 601.7 728.7 593.0 726.3 583.9 724.5 574.9 723.3 565.9 722.7 557.0 722.8 547.6 723.5 538.7 724.7 530.4 726.5 521.6 729.0 512.9 732.1 504.2 735.9 495.2 740.2 486.6 744.9 478.4 750.7 469.6 758.8 458.3 759.8 455.8 760.3 453.1 760.3 450.4 759.3 446.5 758.1 444.1 756.4 442.0 753.2 439.6 740.2 434.5 730.6 430.3 721.8 425.8 713.9 421.2 706.1 416.0 698.7 410.4 691.9 404.5 685.5 398.2 679.3 391.2 673.9 384.1 669.3 377.1 664.8 369.3 660.9 361.1 657.4 352.6 654.3 343.3 651.8 334.0 649.9 324.7 648.3 314.4 646.8 300.5 645.9 298.0 644.5 295.7 642.7 293.6 640.6 292.0 638.2 290.8 635.6 290.1 632.9 289.9 630.2 290.3 617.2 295.1 607.2 298.3 597.6 300.8 588.6 302.6 579.3 304.0 570.2 304.7 561.1 304.8 551.7 304.3 542.8 303.2 534.1 301.5 525.5 299.2 517.0 296.3 508.7 292.8 500.8 289.0 492.7 284.3 484.3 278.8 475.1 271.9 472.7 270.6 470.1 269.8 467.4 269.5 464.6 269.8 462.0 270.5 458.5 272.6 456.5 274.5 455.0 276.7 453.9 279.2 453.3 281.8 453.4 285.9 495.5 526.5Z" fill="#BCD0FF"/>
</svg>
