<svg xmlns="http://www.w3.org/2000/svg" width="1024" height="1024" viewBox="0 0 1024 1024">
  <path d="M0.0 677.5 4.9 699.2 8.2 719.9 9.6 724.2 13.1 729.9 16.3 733.1 20.0 735.6 24.2 737.4 30.8 738.4 37.5 737.5 58.8 728.1 75.1 721.7 90.7 716.6 105.6 712.6 120.9 709.5 136.1 707.3 151.2 706.2 166.2 706.1 181.8 707.0 196.5 709.0 210.3 711.8 224.8 715.7 239.1 720.6 253.3 726.5 268.0 733.8 281.9 741.8 295.1 750.4 309.3 760.7 327.4 775.3 333.7 777.8 338.1 778.5 342.6 778.3 347.0 777.3 353.0 774.2 356.4 771.3 359.1 767.7 368.8 746.5 376.7 730.9 384.6 717.3 393.4 703.9 403.3 690.7 413.3 679.0 423.8 668.2 435.0 658.2 446.0 649.5 458.3 641.1 471.8 633.2 485.2 626.6 499.2 620.8 513.7 615.8 528.9 611.7 543.9 608.5 560.2 606.0 577.6 604.4 600.8 603.2 605.1 601.9 609.1 599.8 614.2 595.4 617.8 589.7 619.2 585.4 619.8 580.9 619.5 576.4 612.6 554.2 608.2 537.3 605.0 521.8 602.7 506.0 601.3 489.6 601.0 474.2 601.7 459.1 603.3 444.2 605.8 430.4 609.4 416.0 614.2 401.1 619.8 387.2 626.4 373.6 634.0 360.2 642.5 347.1 651.7 334.7 662.2 322.0 674.1 309.2 690.6 292.9 693.0 289.0 694.6 284.8 695.4 280.4 695.3 275.9 694.3 271.5 692.6 267.4 690.0 263.7 686.8 260.5 666.9 248.5 652.3 238.8 639.7 229.3 627.4 219.0 615.5 207.7 605.0 196.4 595.5 184.7 586.8 172.4 579.5 160.5 572.6 147.3 566.3 133.0 561.3 118.9 557.1 104.3 554.0 90.0 551.6 74.5 550.1 57.9 549.6 41.4 549.9 24.5 551.5 3.6 551.3 0.0 237.5 0.0 238.0 330.0 0.0 417.0Z" fill="#BCD0FF"/>
</svg>
